<?xml version="1.0" encoding="UTF-8"?>
<svg xmlns="http://www.w3.org/2000/svg" xmlns:xlink="http://www.w3.org/1999/xlink" width="32px" height="32px" viewBox="0 0 32 32" version="1.1">
<g id="surface1">
<path style=" stroke:none;fill-rule:nonzero;fill:rgb(88.235295%,88.627452%,88.627452%);fill-opacity:1;" d="M 0.113281 23.75 C 0.113281 20.886719 0.113281 18.019531 0.15625 15.105469 C 0.40625 15.117188 0.648438 15.132812 0.816406 15.25 C 1.332031 15.617188 1.824219 16.019531 2.3125 16.417969 C 3.117188 17.074219 3.816406 17.933594 5.066406 17.742188 C 6.25 18.453125 7.230469 18.210938 8.039062 17.039062 C 8.058594 17.039062 8.097656 17.039062 8.144531 17.046875 C 8.871094 17.4375 9.851562 17.324219 10.214844 18.261719 C 10.246094 18.347656 10.390625 18.382812 10.476562 18.453125 C 11.128906 18.992188 11.929688 19.125 12.726562 19.335938 C 12.6875 20.003906 12.648438 20.625 12.601562 21.328125 C 13.308594 21.214844 13.894531 21.117188 14.539062 21.015625 C 14.46875 21.683594 14.410156 22.261719 14.347656 22.859375 C 15.679688 22.914062 16.839844 22.582031 17.960938 21.960938 C 18.464844 22.246094 18.953125 22.488281 19.375 22.816406 C 19.664062 23.042969 19.851562 23.390625 20.074219 23.714844 C 19.882812 24.054688 19.667969 24.339844 19.539062 24.664062 C 19.191406 25.519531 19.507812 26.414062 20.277344 26.855469 C 20.417969 26.703125 20.5625 26.546875 20.71875 26.375 C 20.894531 26.570312 21.039062 26.730469 21.203125 26.914062 C 21.367188 26.773438 21.503906 26.65625 21.683594 26.535156 C 21.925781 26.609375 22.242188 26.632812 22.304688 26.769531 C 22.5 27.183594 22.835938 27.121094 23.140625 27.082031 C 23.460938 27.039062 23.769531 26.898438 24.085938 26.816406 C 24.488281 26.714844 24.894531 26.632812 25.308594 26.582031 C 25.289062 28.027344 25.730469 29.132812 27.148438 29.625 C 26.8125 30.441406 26.289062 30.964844 25.4375 30.992188 C 25.21875 30.847656 24.945312 30.679688 24.78125 30.753906 C 24.414062 30.921875 24.441406 31.367188 24.761719 31.636719 C 24.925781 31.777344 25.054688 31.953125 25.199219 32.113281 C 22.519531 32.113281 19.84375 32.113281 17.109375 32.070312 C 16.863281 31.871094 16.6875 31.652344 16.464844 31.566406 C 16.019531 31.398438 15.542969 31.316406 15.089844 31.160156 C 14.980469 31.125 14.871094 30.964844 14.839844 30.84375 C 14.652344 30.070312 13.957031 29.597656 13.171875 29.65625 C 12.945312 29.675781 12.671875 29.542969 12.488281 29.394531 C 12.328125 29.265625 12.230469 29.03125 12.160156 28.824219 C 12.039062 28.457031 11.84375 28.21875 11.429688 28.164062 C 11.292969 28.144531 11.109375 28.015625 11.0625 27.894531 C 10.941406 27.585938 10.890625 27.25 10.789062 26.832031 C 11.347656 26.921875 11.902344 27.011719 12.457031 27.097656 C 12.464844 27.078125 12.472656 27.054688 12.480469 27.035156 C 11.773438 26.625 11.066406 26.214844 10.257812 25.75 C 10.175781 26.074219 10.105469 26.371094 10.003906 26.773438 C 9.804688 26.691406 9.5625 26.589844 9.21875 26.449219 C 9.246094 26.738281 9.269531 26.996094 9.304688 27.347656 C 7.976562 26.964844 7.027344 25.996094 5.871094 25.417969 C 5.777344 25.371094 5.742188 25.195312 5.671875 25.0625 C 6.824219 24.78125 6.824219 24.78125 7.253906 25.800781 C 7.453125 24.917969 7.335938 24.671875 6.597656 24.320312 C 6.445312 24.246094 6.28125 24.121094 6.203125 23.976562 C 5.835938 23.296875 4.894531 22.867188 4.15625 23.035156 C 4.144531 22.628906 4.144531 22.269531 4.144531 21.785156 C 3.296875 21.984375 2.515625 22.113281 1.773438 22.359375 C 1.195312 22.550781 0.785156 22.996094 0.59375 23.628906 C 0.546875 23.683594 0.519531 23.722656 0.441406 23.761719 C 0.300781 23.753906 0.207031 23.75 0.113281 23.75 Z M 0.113281 23.75 "/>
<path style=" stroke:none;fill-rule:nonzero;fill:rgb(89.803922%,89.803922%,89.803922%);fill-opacity:1;" d="M 5.03125 17.722656 C 3.816406 17.933594 3.117188 17.074219 2.3125 16.417969 C 1.824219 16.019531 1.332031 15.617188 0.816406 15.25 C 0.648438 15.132812 0.40625 15.117188 0.15625 15.050781 C 0.113281 11.703125 0.113281 8.359375 0.15625 4.957031 C 0.414062 4.988281 0.648438 5.035156 0.832031 5.15625 C 1.191406 5.398438 1.5 5.722656 1.871094 5.9375 C 2.347656 6.214844 2.394531 6.34375 2.070312 6.808594 C 1.992188 6.925781 1.953125 7.191406 2.023438 7.269531 C 2.398438 7.679688 3.554688 7.691406 4.070312 7.332031 C 4.5 7.714844 4.890625 8.082031 5.253906 8.472656 C 5.21875 8.558594 5.199219 8.683594 5.210938 8.6875 C 5.710938 8.824219 6.210938 9.03125 6.71875 9.058594 C 7.335938 9.089844 7.960938 8.957031 8.585938 8.933594 C 8.726562 8.929688 8.871094 9.09375 9.011719 9.183594 C 8.910156 9.320312 8.835938 9.496094 8.703125 9.589844 C 8.515625 9.71875 8.285156 9.789062 8.089844 9.878906 C 8.277344 10.152344 8.425781 10.402344 8.605469 10.625 C 9.082031 11.207031 9.597656 11.734375 10.464844 11.710938 C 10.890625 12.257812 11.292969 12.777344 11.714844 13.328125 C 11.984375 13.554688 12.234375 13.746094 12.511719 13.96875 C 13.148438 14.222656 13.765625 14.445312 14.433594 14.683594 C 15.6875 14.824219 16.84375 14.613281 18.003906 14.1875 C 18.121094 14.175781 18.195312 14.164062 18.296875 14.148438 C 18.347656 14.128906 18.371094 14.105469 18.417969 14.074219 C 18.46875 14.074219 18.488281 14.074219 18.511719 14.113281 C 18.585938 14.371094 18.660156 14.585938 18.691406 14.816406 C 18.445312 14.867188 18.246094 14.898438 18.046875 14.949219 C 17.007812 15.199219 15.933594 15.363281 15.011719 16.046875 C 14.886719 16.105469 14.800781 16.15625 14.679688 16.210938 C 14.515625 16.34375 14.386719 16.472656 14.257812 16.601562 C 13.617188 17.226562 13.101562 17.925781 12.894531 18.847656 C 12.8125 19.003906 12.765625 19.148438 12.71875 19.289062 C 11.929688 19.125 11.128906 18.992188 10.476562 18.453125 C 10.390625 18.382812 10.246094 18.347656 10.214844 18.261719 C 9.851562 17.324219 8.871094 17.4375 8.15625 17.007812 C 8.285156 16.710938 8.441406 16.453125 8.625 16.160156 C 7.746094 15.75 6.960938 15.292969 5.964844 15.570312 C 5.332031 15.757812 4.976562 16.167969 4.765625 16.75 C 5 16.875 5.191406 16.972656 5.398438 17.082031 C 5.261719 17.316406 5.148438 17.519531 5.03125 17.722656 Z M 5.03125 17.722656 "/>
<path style=" stroke:none;fill-rule:nonzero;fill:rgb(87.058824%,87.058824%,87.058824%);fill-opacity:1;" d="M 0.113281 23.800781 C 0.207031 23.75 0.300781 23.753906 0.441406 23.804688 C 0.453125 24.246094 0.417969 24.636719 0.382812 25.074219 C 0.78125 25.03125 1.058594 25 1.363281 24.964844 C 1.347656 25.328125 1.335938 25.617188 1.320312 25.960938 C 2.046875 25.890625 2.71875 25.855469 3.261719 25.296875 C 3.378906 25.207031 3.464844 25.132812 3.578125 25.09375 C 4.171875 25.382812 4.699219 25.277344 5.257812 24.960938 C 5.015625 24.378906 4.433594 24.394531 3.996094 24.148438 C 4.054688 23.761719 4.109375 23.421875 4.164062 23.078125 C 4.894531 22.867188 5.835938 23.296875 6.203125 23.976562 C 6.28125 24.121094 6.445312 24.246094 6.597656 24.320312 C 7.335938 24.671875 7.453125 24.917969 7.253906 25.800781 C 6.824219 24.78125 6.824219 24.78125 5.671875 25.0625 C 5.742188 25.195312 5.777344 25.371094 5.871094 25.417969 C 7.027344 25.996094 7.976562 26.964844 9.304688 27.347656 C 9.269531 26.996094 9.246094 26.738281 9.21875 26.449219 C 9.5625 26.589844 9.804688 26.691406 10.003906 26.773438 C 10.105469 26.371094 10.175781 26.074219 10.257812 25.75 C 11.066406 26.214844 11.773438 26.625 12.480469 27.035156 C 12.472656 27.054688 12.464844 27.078125 12.457031 27.097656 C 11.902344 27.011719 11.347656 26.921875 10.789062 26.832031 C 10.890625 27.25 10.941406 27.585938 11.0625 27.894531 C 11.109375 28.015625 11.292969 28.144531 11.429688 28.164062 C 11.84375 28.21875 12.039062 28.457031 12.160156 28.824219 C 12.230469 29.03125 12.328125 29.265625 12.488281 29.394531 C 12.671875 29.542969 12.945312 29.675781 13.171875 29.65625 C 13.957031 29.597656 14.652344 30.070312 14.839844 30.84375 C 14.871094 30.964844 14.980469 31.125 15.089844 31.160156 C 15.542969 31.316406 16.019531 31.398438 16.464844 31.566406 C 16.6875 31.652344 16.863281 31.871094 17.058594 32.070312 C 11.421875 32.113281 5.78125 32.113281 0.113281 32.113281 C 0.113281 29.359375 0.113281 26.605469 0.113281 23.800781 Z M 0.113281 23.800781 "/>
<path style=" stroke:none;fill-rule:nonzero;fill:rgb(93.333334%,93.333334%,93.333334%);fill-opacity:1;" d="M 16.949219 0.113281 C 21.992188 0.113281 27.039062 0.113281 32.113281 0.113281 C 32.113281 3.683594 32.113281 7.253906 32.066406 10.875 C 31.9375 10.933594 31.847656 10.941406 31.761719 10.945312 C 31.761719 10.941406 31.765625 10.945312 31.769531 10.898438 C 31.679688 10.726562 31.578125 10.5 31.492188 10.503906 C 31.320312 10.519531 31.15625 10.65625 30.960938 10.746094 C 30.894531 10.738281 30.859375 10.730469 30.785156 10.71875 C 30.714844 10.707031 30.691406 10.707031 30.628906 10.6875 C 30.511719 10.566406 30.421875 10.460938 30.363281 10.324219 C 30.773438 10.1875 31.148438 10.074219 31.621094 9.933594 C 31.359375 9.601562 31.140625 9.324219 30.917969 9.003906 C 30.683594 8.824219 30.460938 8.683594 30.230469 8.523438 C 30.226562 8.507812 30.21875 8.472656 30.222656 8.433594 C 30.289062 8.191406 30.558594 8 30.238281 7.78125 C 29.882812 7.535156 29.207031 7.730469 28.9375 8.152344 C 28.585938 8.140625 28.285156 8.128906 27.988281 8.074219 C 27.917969 7.128906 27.746094 6.957031 26.917969 6.710938 C 26.503906 6.585938 26.070312 6.410156 25.734375 6.140625 C 25.1875 5.703125 24.589844 5.484375 23.886719 5.429688 C 23.53125 4.664062 23.242188 3.902344 22.539062 3.375 C 22.410156 3.160156 22.292969 2.980469 22.121094 2.71875 C 21.835938 3.160156 21.667969 3.414062 21.472656 3.691406 C 21.289062 3.890625 21.136719 4.074219 20.972656 4.269531 C 20.785156 4.074219 20.652344 3.933594 20.515625 3.75 C 20.324219 3.429688 20.136719 3.148438 19.9375 2.847656 C 19.753906 2.972656 19.632812 3.054688 19.515625 3.082031 C 19.511719 2.808594 19.550781 2.578125 19.5 2.371094 C 19.453125 2.175781 19.332031 1.855469 19.214844 1.84375 C 18.171875 1.726562 17.824219 0.652344 16.988281 0.265625 C 16.957031 0.253906 16.960938 0.164062 16.949219 0.113281 M 29.414062 6.394531 C 30.894531 6.246094 31.6875 5.40625 31.429688 4.242188 C 31.210938 4.242188 30.992188 4.242188 30.761719 4.152344 C 30.796875 3.921875 30.835938 3.691406 30.878906 3.402344 C 30.058594 3.394531 29.351562 3.503906 28.835938 4.292969 C 28.707031 4.683594 28.578125 5.078125 28.398438 5.535156 C 28.359375 5.832031 28.316406 6.128906 28.269531 6.496094 C 28.671875 6.457031 28.996094 6.425781 29.414062 6.394531 Z M 29.414062 6.394531 "/>
<path style=" stroke:none;fill-rule:nonzero;fill:rgb(89.803922%,89.411765%,89.411765%);fill-opacity:1;" d="M 20.085938 23.683594 C 19.851562 23.390625 19.664062 23.042969 19.375 22.816406 C 18.953125 22.488281 18.464844 22.246094 17.980469 21.933594 C 18.039062 21.824219 18.117188 21.75 18.230469 21.660156 C 18.46875 21.460938 18.695312 21.296875 18.867188 21.085938 C 19.355469 20.492188 19.878906 19.914062 19.867188 19.035156 C 19.945312 18.878906 20 18.75 20.070312 18.578125 C 20.199219 17.558594 20.308594 16.582031 20.464844 15.605469 C 20.867188 15.683594 21.226562 15.757812 21.601562 15.878906 C 21.699219 16.640625 21.78125 17.351562 21.859375 18.105469 C 21.925781 18.457031 21.996094 18.761719 22.066406 19.101562 C 22.089844 19.230469 22.121094 19.320312 22.160156 19.449219 C 22.527344 20.429688 23.105469 21.195312 23.96875 21.785156 C 25.070312 22.640625 26.296875 22.890625 27.660156 22.84375 C 27.578125 22.1875 27.503906 21.597656 27.425781 20.984375 C 28.121094 21.097656 28.730469 21.199219 29.421875 21.3125 C 29.378906 20.648438 29.34375 20.082031 29.355469 19.511719 C 29.628906 19.597656 30.03125 19.660156 30.050781 19.777344 C 30.109375 20.179688 30.078125 20.609375 30 21.015625 C 29.9375 21.347656 29.585938 21.730469 29.679688 21.960938 C 29.785156 22.222656 30.246094 22.34375 30.558594 22.5625 C 30.871094 22.714844 31.167969 22.847656 31.480469 22.929688 C 31.679688 22.984375 31.902344 22.957031 32.113281 22.96875 C 32.113281 25.3125 32.113281 27.65625 32.070312 30.050781 C 31.953125 30.113281 31.867188 30.097656 31.808594 30.128906 C 31.21875 30.457031 31.035156 30.410156 30.738281 29.804688 C 30.621094 29.558594 30.585938 29.25 30.417969 29.050781 C 30.136719 28.714844 30.222656 28.464844 30.4375 28.160156 C 30.535156 28.023438 30.628906 27.726562 30.570312 27.671875 C 30.402344 27.515625 30.152344 27.371094 29.933594 27.371094 C 29.570312 27.371094 29.210938 27.484375 28.824219 27.519531 C 28.285156 25.855469 26.839844 25.746094 25.453125 25.410156 C 25.398438 25.820312 25.347656 26.179688 25.300781 26.539062 C 24.894531 26.632812 24.488281 26.714844 24.085938 26.816406 C 23.769531 26.898438 23.460938 27.039062 23.140625 27.082031 C 22.835938 27.121094 22.5 27.183594 22.304688 26.769531 C 22.242188 26.632812 21.925781 26.609375 21.695312 26.5 C 22.28125 25.449219 22.214844 24.902344 21.324219 23.703125 C 21.257812 23.613281 21.203125 23.550781 21.128906 23.457031 C 20.992188 23.292969 20.875 23.164062 20.71875 22.996094 C 20.476562 23.257812 20.28125 23.46875 20.085938 23.683594 Z M 20.085938 23.683594 "/>
<path style=" stroke:none;fill-rule:nonzero;fill:rgb(90.980393%,91.37255%,91.37255%);fill-opacity:1;" d="M 10.441406 11.683594 C 9.597656 11.734375 9.082031 11.207031 8.605469 10.625 C 8.425781 10.402344 8.277344 10.152344 8.089844 9.878906 C 8.285156 9.789062 8.515625 9.71875 8.703125 9.589844 C 8.835938 9.496094 8.910156 9.320312 9.011719 9.183594 C 8.871094 9.09375 8.726562 8.929688 8.585938 8.933594 C 7.960938 8.957031 7.335938 9.089844 6.71875 9.058594 C 6.210938 9.03125 5.710938 8.824219 5.210938 8.6875 C 5.199219 8.683594 5.21875 8.558594 5.296875 8.480469 C 5.960938 8.4375 6.550781 8.40625 7.183594 8.367188 C 7.425781 8.300781 7.625 8.242188 7.863281 8.167969 C 7.671875 7.707031 7.511719 7.320312 7.378906 6.898438 C 7.648438 6.828125 7.917969 6.703125 8.136719 6.761719 C 8.667969 6.914062 8.921875 6.558594 8.875 6.21875 C 8.796875 5.660156 8.9375 5.347656 9.652344 5.179688 C 9.296875 4.933594 9.097656 4.792969 8.898438 4.664062 C 8.550781 4.4375 8.089844 4.300781 7.871094 3.988281 C 7.382812 3.28125 6.328125 3.503906 5.929688 2.707031 C 5.917969 2.679688 5.820312 2.703125 5.773438 2.675781 C 5.59375 2.570312 5.414062 2.464844 5.242188 2.34375 C 5.070312 2.214844 4.917969 2.054688 4.738281 1.933594 C 4.191406 1.570312 3.640625 1.214844 3.085938 0.863281 C 2.964844 0.785156 2.820312 0.679688 2.695312 0.6875 C 2.09375 0.734375 1.492188 0.8125 0.875 0.878906 C 0.765625 0.613281 0.660156 0.363281 0.558594 0.113281 C 2.828125 0.113281 5.097656 0.113281 7.421875 0.152344 C 7.660156 0.386719 7.804688 0.636719 8.023438 0.765625 C 8.464844 1.023438 8.972656 1.171875 9.398438 1.449219 C 9.742188 1.679688 9.996094 2.039062 10.304688 2.328125 C 11.082031 3.054688 11.640625 3.039062 12.371094 2.316406 C 12.484375 2.207031 12.695312 2.195312 12.84375 2.179688 C 12.558594 3.253906 12.824219 4.011719 13.742188 4.523438 C 14.214844 4.789062 14.765625 4.917969 15.304688 5.109375 C 15.355469 5.078125 15.378906 5.050781 15.421875 5.019531 C 15.441406 5.015625 15.484375 5.011719 15.527344 5.015625 C 16.339844 5.425781 17.148438 5.660156 18.035156 5.601562 C 18.039062 5.625 18.039062 5.679688 18.015625 5.703125 C 17.976562 5.828125 17.964844 5.925781 17.933594 6.0625 C 17.933594 6.855469 17.949219 7.605469 17.925781 8.363281 C 17.53125 8.59375 17.171875 8.816406 16.78125 9.03125 C 16.667969 8.988281 16.585938 8.953125 16.480469 8.882812 C 15.804688 8.644531 15.15625 8.433594 14.464844 8.199219 C 13.609375 8.105469 12.804688 8.105469 12 8.46875 C 11.65625 8.589844 11.359375 8.707031 10.96875 8.863281 C 11.203125 9.226562 11.394531 9.523438 11.589844 9.855469 C 11.59375 9.9375 11.597656 9.984375 11.566406 10.0625 C 11.023438 10.289062 10.371094 9.894531 9.921875 10.496094 C 10.046875 10.652344 10.160156 10.792969 10.265625 10.980469 C 10.320312 11.242188 10.378906 11.464844 10.441406 11.683594 Z M 10.441406 11.683594 "/>
<path style=" stroke:none;fill-rule:nonzero;fill:rgb(91.37255%,90.980393%,90.980393%);fill-opacity:1;" d="M 30.550781 22.523438 C 30.246094 22.34375 29.785156 22.222656 29.679688 21.960938 C 29.585938 21.730469 29.9375 21.347656 30 21.015625 C 30.078125 20.609375 30.109375 20.179688 30.050781 19.777344 C 30.03125 19.660156 29.628906 19.597656 29.335938 19.480469 C 29.210938 19.285156 29.152344 19.121094 29.097656 18.914062 C 28.980469 18.582031 28.890625 18.277344 28.746094 18 C 28.398438 17.351562 28.039062 16.703125 27.316406 16.351562 C 27.304688 16.292969 27.285156 16.269531 27.230469 16.222656 C 26.839844 15.992188 26.472656 15.796875 26.074219 15.574219 C 24.984375 15.269531 23.917969 14.996094 22.863281 14.679688 C 22.9375 14.414062 23.007812 14.183594 23.121094 13.957031 C 23.394531 14.023438 23.628906 14.089844 23.898438 14.171875 C 24.609375 14.347656 25.285156 14.503906 25.996094 14.675781 C 26.164062 14.695312 26.292969 14.699219 26.472656 14.714844 C 26.789062 14.714844 27.050781 14.710938 27.363281 14.707031 C 28.363281 14.5625 29.273438 14.300781 30.027344 13.582031 C 30.890625 12.867188 31.445312 11.984375 31.761719 10.945312 C 31.847656 10.941406 31.9375 10.933594 32.066406 10.925781 C 32.113281 14.90625 32.113281 18.886719 32.113281 22.917969 C 31.902344 22.957031 31.679688 22.984375 31.480469 22.929688 C 31.167969 22.847656 30.871094 22.714844 30.59375 22.554688 C 30.664062 22.433594 30.703125 22.359375 30.746094 22.28125 C 30.703125 22.269531 30.660156 22.253906 30.617188 22.238281 C 30.59375 22.332031 30.574219 22.429688 30.550781 22.523438 Z M 30.550781 22.523438 "/>
<path style=" stroke:none;fill-rule:nonzero;fill:rgb(91.37255%,90.980393%,90.980393%);fill-opacity:1;" d="M 0.5 0.113281 C 0.660156 0.363281 0.765625 0.613281 0.875 0.878906 C 1.492188 0.8125 2.09375 0.734375 2.695312 0.6875 C 2.820312 0.679688 2.964844 0.785156 3.085938 0.863281 C 3.640625 1.214844 4.191406 1.570312 4.738281 1.933594 C 4.917969 2.054688 5.070312 2.214844 5.242188 2.34375 C 5.414062 2.464844 5.59375 2.570312 5.773438 2.675781 C 5.820312 2.703125 5.917969 2.679688 5.929688 2.707031 C 6.328125 3.503906 7.382812 3.28125 7.871094 3.988281 C 8.089844 4.300781 8.550781 4.4375 8.898438 4.664062 C 9.097656 4.792969 9.296875 4.933594 9.652344 5.179688 C 8.9375 5.347656 8.796875 5.660156 8.875 6.21875 C 8.921875 6.558594 8.667969 6.914062 8.136719 6.761719 C 7.917969 6.703125 7.648438 6.828125 7.351562 6.882812 C 7.261719 6.863281 7.21875 6.824219 7.164062 6.746094 C 6.875 6.414062 6.597656 6.117188 6.351562 5.796875 C 6.519531 5.296875 6.113281 5.132812 5.839844 4.96875 C 5.59375 4.824219 4.933594 5.34375 4.78125 5.738281 C 4.695312 5.789062 4.636719 5.8125 4.554688 5.84375 C 4.523438 5.855469 4.507812 5.871094 4.511719 5.882812 C 4.519531 5.90625 4.539062 5.929688 4.550781 6 C 4.609375 6.226562 4.667969 6.410156 4.730469 6.621094 C 4.429688 6.683594 4.1875 6.738281 3.949219 6.789062 C 3.984375 7.003906 4.007812 7.164062 4.03125 7.320312 C 3.554688 7.691406 2.398438 7.679688 2.023438 7.269531 C 1.953125 7.191406 1.992188 6.925781 2.070312 6.808594 C 2.394531 6.34375 2.347656 6.214844 1.871094 5.9375 C 1.5 5.722656 1.191406 5.398438 0.832031 5.15625 C 0.648438 5.035156 0.414062 4.988281 0.15625 4.90625 C 0.113281 4.640625 0.113281 4.378906 0.15625 4.0625 C 0.296875 4.015625 0.390625 4.03125 0.476562 4.015625 C 0.703125 3.984375 1.082031 3.992188 1.125 3.878906 C 1.203125 3.667969 1.101562 3.382812 1.058594 3.128906 C 1.042969 3.011719 0.996094 2.898438 0.949219 2.789062 C 0.882812 2.648438 0.796875 2.515625 0.722656 2.378906 C 0.59375 2.449219 0.464844 2.511719 0.34375 2.59375 C 0.257812 2.648438 0.1875 2.722656 0.113281 2.789062 C 0.113281 1.894531 0.113281 1.003906 0.113281 0.113281 C 0.226562 0.113281 0.335938 0.113281 0.5 0.113281 Z M 0.5 0.113281 "/>
<path style=" stroke:none;fill-rule:nonzero;fill:rgb(92.54902%,92.54902%,92.54902%);fill-opacity:1;" d="M 12.859375 2.136719 C 12.695312 2.195312 12.484375 2.207031 12.371094 2.316406 C 11.640625 3.039062 11.082031 3.054688 10.304688 2.328125 C 9.996094 2.039062 9.742188 1.679688 9.398438 1.449219 C 8.972656 1.171875 8.464844 1.023438 8.023438 0.765625 C 7.804688 0.636719 7.660156 0.386719 7.476562 0.152344 C 8.140625 0.113281 8.8125 0.113281 9.53125 0.152344 C 9.546875 0.339844 9.441406 0.523438 9.492188 0.613281 C 9.640625 0.871094 9.808594 1.171875 10.050781 1.289062 C 10.253906 1.390625 10.640625 1.34375 10.8125 1.199219 C 10.949219 1.085938 10.890625 0.734375 10.929688 0.390625 C 10.636719 0.511719 10.492188 0.574219 10.304688 0.652344 C 10.210938 0.460938 10.121094 0.285156 10.035156 0.113281 C 12.304688 0.113281 14.574219 0.113281 16.894531 0.113281 C 16.960938 0.164062 16.957031 0.253906 16.988281 0.265625 C 17.824219 0.652344 18.171875 1.726562 19.214844 1.84375 C 19.332031 1.855469 19.453125 2.175781 19.5 2.371094 C 19.550781 2.578125 19.511719 2.808594 19.496094 3.113281 C 18.675781 3.699219 18.417969 4.546875 18.097656 5.394531 C 18.066406 5.476562 18.050781 5.527344 18.03125 5.574219 C 17.148438 5.660156 16.339844 5.425781 15.523438 4.972656 C 15.496094 4.847656 15.511719 4.765625 15.5625 4.675781 C 16.054688 4.5625 16.1875 4.1875 16.207031 3.800781 C 16.210938 3.734375 15.808594 3.640625 15.585938 3.519531 C 15.367188 3.023438 15.15625 2.570312 14.921875 2.082031 C 14.515625 1.867188 14.128906 1.679688 13.679688 1.46875 C 13.628906 1.855469 13.601562 2.070312 13.566406 2.316406 C 13.3125 2.253906 13.085938 2.195312 12.859375 2.136719 Z M 12.859375 2.136719 "/>
<path style=" stroke:none;fill-rule:nonzero;fill:rgb(89.019608%,89.019608%,89.019608%);fill-opacity:1;" d="M 28.847656 27.546875 C 29.210938 27.484375 29.570312 27.371094 29.933594 27.371094 C 30.152344 27.371094 30.402344 27.515625 30.570312 27.671875 C 30.628906 27.726562 30.535156 28.023438 30.4375 28.160156 C 30.222656 28.464844 30.136719 28.714844 30.417969 29.050781 C 30.585938 29.25 30.621094 29.558594 30.738281 29.804688 C 31.035156 30.410156 31.21875 30.457031 31.808594 30.128906 C 31.867188 30.097656 31.953125 30.113281 32.070312 30.105469 C 32.113281 30.765625 32.113281 31.429688 32.113281 32.113281 C 30.996094 32.113281 29.875 32.113281 28.699219 32.070312 C 28.1875 31.65625 28.035156 31.671875 27.875 32.113281 C 27.71875 32.113281 27.566406 32.113281 27.359375 32.074219 C 27.390625 31.8125 27.46875 31.585938 27.59375 31.238281 C 27.460938 31.132812 27.226562 30.953125 26.867188 30.671875 C 26.910156 31.105469 26.9375 31.34375 26.957031 31.539062 C 26.617188 31.425781 26.324219 31.289062 26.019531 31.234375 C 25.875 31.207031 25.707031 31.339844 25.546875 31.398438 C 25.644531 31.554688 25.730469 31.714844 25.835938 31.859375 C 25.90625 31.957031 26.003906 32.027344 26.089844 32.113281 C 25.828125 32.113281 25.5625 32.113281 25.25 32.113281 C 25.054688 31.953125 24.925781 31.777344 24.761719 31.636719 C 24.441406 31.367188 24.414062 30.921875 24.78125 30.753906 C 24.945312 30.679688 25.21875 30.847656 25.4375 30.992188 C 26.289062 30.964844 26.8125 30.441406 27.191406 29.628906 C 27.445312 29.628906 27.617188 29.648438 27.8125 29.671875 C 27.832031 29.324219 27.847656 29.054688 27.867188 28.746094 C 28.199219 28.816406 28.484375 28.878906 28.847656 28.957031 C 28.847656 28.457031 28.847656 28.003906 28.847656 27.546875 Z M 28.847656 27.546875 "/>
<path style=" stroke:none;fill-rule:nonzero;fill:rgb(88.235295%,88.627452%,88.627452%);fill-opacity:1;" d="M 26.140625 32.113281 C 26.003906 32.027344 25.90625 31.957031 25.835938 31.859375 C 25.730469 31.714844 25.644531 31.554688 25.546875 31.398438 C 25.707031 31.339844 25.875 31.207031 26.019531 31.234375 C 26.324219 31.289062 26.617188 31.425781 26.957031 31.539062 C 26.9375 31.34375 26.910156 31.105469 26.867188 30.671875 C 27.226562 30.953125 27.460938 31.132812 27.59375 31.238281 C 27.46875 31.585938 27.390625 31.8125 27.3125 32.074219 C 26.941406 32.113281 26.566406 32.113281 26.140625 32.113281 Z M 26.140625 32.113281 "/>
<path style=" stroke:none;fill-rule:nonzero;fill:rgb(89.803922%,89.803922%,89.803922%);fill-opacity:1;" d="M 0.113281 2.839844 C 0.1875 2.722656 0.257812 2.648438 0.34375 2.59375 C 0.464844 2.511719 0.59375 2.449219 0.722656 2.378906 C 0.796875 2.515625 0.882812 2.648438 0.949219 2.789062 C 0.996094 2.898438 1.042969 3.011719 1.058594 3.128906 C 1.101562 3.382812 1.203125 3.667969 1.125 3.878906 C 1.082031 3.992188 0.703125 3.984375 0.476562 4.015625 C 0.390625 4.03125 0.296875 4.015625 0.15625 4.015625 C 0.113281 3.640625 0.113281 3.265625 0.113281 2.839844 Z M 0.113281 2.839844 "/>
<path style=" stroke:none;fill-rule:nonzero;fill:rgb(90.980393%,91.37255%,91.37255%);fill-opacity:1;" d="M 9.992188 0.113281 C 10.121094 0.285156 10.210938 0.460938 10.304688 0.652344 C 10.492188 0.574219 10.636719 0.511719 10.929688 0.390625 C 10.890625 0.734375 10.949219 1.085938 10.8125 1.199219 C 10.640625 1.34375 10.253906 1.390625 10.050781 1.289062 C 9.808594 1.171875 9.640625 0.871094 9.492188 0.613281 C 9.441406 0.523438 9.546875 0.339844 9.582031 0.152344 C 9.707031 0.113281 9.828125 0.113281 9.992188 0.113281 Z M 9.992188 0.113281 "/>
<path style=" stroke:none;fill-rule:nonzero;fill:rgb(88.235295%,88.627452%,88.627452%);fill-opacity:1;" d="M 27.921875 32.113281 C 28.035156 31.671875 28.1875 31.65625 28.648438 32.070312 C 28.425781 32.113281 28.199219 32.113281 27.921875 32.113281 Z M 27.921875 32.113281 "/>
<path style=" stroke:none;fill-rule:nonzero;fill:rgb(72.156864%,18.039216%,33.333334%);fill-opacity:1;" d="M 28.824219 27.519531 C 28.847656 28.003906 28.847656 28.457031 28.847656 28.957031 C 28.484375 28.878906 28.199219 28.816406 27.867188 28.746094 C 27.847656 29.054688 27.832031 29.324219 27.8125 29.671875 C 27.617188 29.648438 27.445312 29.628906 27.230469 29.605469 C 25.730469 29.132812 25.289062 28.027344 25.308594 26.582031 C 25.347656 26.179688 25.398438 25.820312 25.453125 25.410156 C 26.839844 25.746094 28.285156 25.855469 28.824219 27.519531 Z M 28.824219 27.519531 "/>
<path style=" stroke:none;fill-rule:nonzero;fill:rgb(80.392158%,26.666668%,38.82353%);fill-opacity:1;" d="M 18.195312 21.675781 C 18.117188 21.75 18.039062 21.824219 17.941406 21.929688 C 16.839844 22.582031 15.679688 22.914062 14.347656 22.859375 C 14.410156 22.261719 14.46875 21.683594 14.539062 21.015625 C 13.894531 21.117188 13.308594 21.214844 12.601562 21.328125 C 12.648438 20.625 12.6875 20.003906 12.726562 19.335938 C 12.765625 19.148438 12.8125 19.003906 12.898438 18.886719 C 13 19.003906 13.035156 19.136719 13.121094 19.179688 C 14.359375 19.824219 15.554688 20.605469 16.960938 20.808594 C 17.578125 20.898438 17.9375 21.167969 18.195312 21.675781 Z M 18.195312 21.675781 "/>
<path style=" stroke:none;fill-rule:nonzero;fill:rgb(76.078433%,18.039216%,34.117648%);fill-opacity:1;" d="M 4.15625 23.035156 C 4.109375 23.421875 4.054688 23.761719 3.976562 24.179688 C 3.820312 24.523438 3.683594 24.789062 3.550781 25.058594 C 3.464844 25.132812 3.378906 25.207031 3.226562 25.277344 C 2.3125 24.71875 1.460938 24.164062 0.613281 23.613281 C 0.785156 22.996094 1.195312 22.550781 1.773438 22.359375 C 2.515625 22.113281 3.296875 21.984375 4.144531 21.785156 C 4.144531 22.269531 4.144531 22.628906 4.15625 23.035156 Z M 4.15625 23.035156 "/>
<path style=" stroke:none;fill-rule:nonzero;fill:rgb(72.549021%,20.392157%,34.117648%);fill-opacity:1;" d="M 20.074219 23.714844 C 20.28125 23.46875 20.476562 23.257812 20.71875 22.996094 C 20.875 23.164062 20.992188 23.292969 21.09375 23.476562 C 21.160156 23.597656 21.246094 23.667969 21.332031 23.734375 C 22.214844 24.902344 22.28125 25.449219 21.652344 26.5 C 21.503906 26.65625 21.367188 26.773438 21.203125 26.914062 C 21.039062 26.730469 20.894531 26.570312 20.71875 26.375 C 20.5625 26.546875 20.417969 26.703125 20.277344 26.855469 C 19.507812 26.414062 19.191406 25.519531 19.539062 24.664062 C 19.667969 24.339844 19.882812 24.054688 20.074219 23.714844 Z M 20.074219 23.714844 "/>
<path style=" stroke:none;fill-rule:nonzero;fill:rgb(81.960785%,27.843139%,40.000001%);fill-opacity:1;" d="M 5.066406 17.742188 C 5.148438 17.519531 5.261719 17.316406 5.398438 17.082031 C 5.191406 16.972656 5 16.875 4.765625 16.75 C 4.976562 16.167969 5.332031 15.757812 5.980469 15.609375 C 6.332031 15.8125 6.609375 16.011719 6.917969 16.144531 C 7.375 16.34375 7.84375 16.503906 8.019531 17.039062 C 7.230469 18.210938 6.25 18.453125 5.066406 17.742188 Z M 5.066406 17.742188 "/>
<path style=" stroke:none;fill-rule:nonzero;fill:rgb(74.117649%,17.254902%,32.156864%);fill-opacity:1;" d="M 0.59375 23.628906 C 1.460938 24.164062 2.3125 24.71875 3.195312 25.289062 C 2.71875 25.855469 2.046875 25.890625 1.320312 25.960938 C 1.335938 25.617188 1.347656 25.328125 1.363281 24.964844 C 1.058594 25 0.78125 25.03125 0.382812 25.074219 C 0.417969 24.636719 0.453125 24.246094 0.488281 23.808594 C 0.519531 23.722656 0.546875 23.683594 0.59375 23.628906 Z M 0.59375 23.628906 "/>
<path style=" stroke:none;fill-rule:nonzero;fill:rgb(83.137256%,30.980393%,41.960785%);fill-opacity:1;" d="M 8.039062 17.039062 C 7.84375 16.503906 7.375 16.34375 6.917969 16.144531 C 6.609375 16.011719 6.332031 15.8125 6.023438 15.601562 C 6.960938 15.292969 7.746094 15.75 8.625 16.160156 C 8.441406 16.453125 8.285156 16.710938 8.113281 17.003906 C 8.097656 17.039062 8.058594 17.039062 8.039062 17.039062 Z M 8.039062 17.039062 "/>
<path style=" stroke:none;fill-rule:nonzero;fill:rgb(82.352942%,28.627452%,40.784314%);fill-opacity:1;" d="M 18.230469 21.660156 C 17.9375 21.167969 17.578125 20.898438 16.960938 20.808594 C 15.554688 20.605469 14.359375 19.824219 13.121094 19.179688 C 13.035156 19.136719 13 19.003906 12.933594 18.871094 C 13.101562 17.925781 13.617188 17.226562 14.257812 16.601562 C 14.386719 16.472656 14.515625 16.34375 14.683594 16.25 C 14.984375 16.9375 15.433594 17.4375 16.089844 17.710938 C 16.613281 17.925781 17.160156 18.078125 17.695312 18.273438 C 18.414062 18.53125 19.128906 18.800781 19.84375 19.066406 C 19.878906 19.914062 19.355469 20.492188 18.867188 21.085938 C 18.695312 21.296875 18.46875 21.460938 18.230469 21.660156 Z M 18.230469 21.660156 "/>
<path style=" stroke:none;fill-rule:nonzero;fill:rgb(85.09804%,34.509805%,44.705883%);fill-opacity:1;" d="M 20.417969 15.605469 C 20.308594 16.582031 20.199219 17.558594 20.027344 18.578125 C 19.765625 18.519531 19.550781 18.441406 19.363281 18.320312 C 18.90625 18.023438 18.496094 17.636719 18.011719 17.410156 C 17.175781 17.03125 16.296875 16.757812 15.445312 16.414062 C 15.285156 16.347656 15.175781 16.164062 15.046875 16.035156 C 15.933594 15.363281 17.007812 15.199219 18.046875 14.949219 C 18.246094 14.898438 18.445312 14.867188 18.734375 14.820312 C 18.980469 14.792969 19.132812 14.773438 19.289062 14.804688 C 19.421875 15.433594 19.890625 15.445312 20.359375 15.503906 C 20.375 15.558594 20.390625 15.585938 20.417969 15.605469 Z M 20.417969 15.605469 "/>
<path style=" stroke:none;fill-rule:nonzero;fill:rgb(91.37255%,46.666667%,53.333336%);fill-opacity:1;" d="M 11.597656 10.03125 C 11.597656 9.984375 11.59375 9.9375 11.621094 9.824219 C 12.175781 9.664062 12.707031 9.605469 13.21875 9.464844 C 14.113281 9.222656 14.5 9.460938 14.863281 10.347656 C 15.097656 10.933594 15.511719 11.476562 16.144531 11.691406 C 16.871094 11.941406 17.785156 11.511719 18.339844 10.777344 C 18.414062 10.832031 18.46875 10.871094 18.527344 10.945312 C 18.816406 11.386719 19.09375 11.792969 19.371094 12.230469 C 19.371094 12.296875 19.371094 12.335938 19.328125 12.375 C 19.070312 12.417969 18.851562 12.445312 18.644531 12.503906 C 17.699219 12.769531 17.570312 13.199219 18.207031 13.921875 C 18.242188 13.964844 18.261719 14.015625 18.289062 14.085938 C 18.28125 14.109375 18.273438 14.15625 18.273438 14.15625 C 18.195312 14.164062 18.121094 14.175781 17.984375 14.148438 C 17.519531 13.839844 17.007812 13.636719 16.722656 13.261719 C 16.4375 12.882812 16.132812 12.652344 15.707031 12.589844 C 14.574219 12.417969 13.890625 11.71875 13.347656 10.777344 C 12.910156 10.023438 12.449219 9.878906 11.78125 10.152344 C 11.703125 10.101562 11.652344 10.066406 11.597656 10.03125 Z M 11.597656 10.03125 "/>
<path style=" stroke:none;fill-rule:nonzero;fill:rgb(90.196079%,44.705883%,51.372552%);fill-opacity:1;" d="M 11.804688 10.171875 C 12.449219 9.878906 12.910156 10.023438 13.347656 10.777344 C 13.890625 11.71875 14.574219 12.417969 15.707031 12.589844 C 16.132812 12.652344 16.4375 12.882812 16.722656 13.261719 C 17.007812 13.636719 17.519531 13.839844 17.949219 14.152344 C 16.84375 14.613281 15.6875 14.824219 14.433594 14.644531 C 14.664062 14.289062 14.945312 13.984375 15.332031 13.570312 C 14.769531 13.460938 14.273438 13.273438 13.789062 13.296875 C 13.304688 13.3125 12.765625 13.417969 12.488281 13.941406 C 12.234375 13.746094 11.984375 13.554688 11.71875 13.285156 C 11.753906 13.097656 11.773438 12.945312 11.859375 12.878906 C 12.210938 12.601562 12.625 12.359375 12.574219 11.839844 C 12.535156 11.398438 12.449219 10.957031 12.3125 10.535156 C 12.269531 10.40625 11.996094 10.347656 11.816406 10.238281 C 11.808594 10.21875 11.804688 10.171875 11.804688 10.171875 Z M 11.804688 10.171875 "/>
<path style=" stroke:none;fill-rule:nonzero;fill:rgb(92.54902%,92.156863%,92.156863%);fill-opacity:1;" d="M 19.371094 12.375 C 19.371094 12.335938 19.371094 12.296875 19.394531 12.191406 C 19.625 12.023438 19.835938 11.921875 20.074219 11.851562 C 20.421875 12.230469 20.746094 12.582031 21.109375 12.9375 C 21.429688 13.0625 21.710938 13.183594 21.988281 13.347656 C 22.085938 13.488281 22.175781 13.625 22.300781 13.683594 C 22.550781 13.796875 22.820312 13.867188 23.078125 13.957031 C 23.007812 14.183594 22.9375 14.414062 22.824219 14.6875 C 22.734375 14.734375 22.683594 14.734375 22.59375 14.71875 C 22.238281 14.648438 21.921875 14.59375 21.515625 14.523438 C 21.5625 14.902344 21.597656 15.199219 21.628906 15.539062 C 21.609375 15.664062 21.597656 15.746094 21.585938 15.832031 C 21.226562 15.757812 20.867188 15.683594 20.464844 15.605469 C 20.390625 15.585938 20.375 15.558594 20.371094 15.464844 C 20.375 15.140625 20.375 14.875 20.375 14.542969 C 19.960938 14.625 19.625 14.691406 19.289062 14.757812 C 19.132812 14.773438 18.980469 14.792969 18.78125 14.804688 C 18.660156 14.585938 18.585938 14.371094 18.550781 14.097656 C 19.078125 13.886719 19.5625 13.726562 20.121094 13.542969 C 19.847656 13.113281 19.609375 12.746094 19.371094 12.375 Z M 19.371094 12.375 "/>
<path style=" stroke:none;fill-rule:nonzero;fill:rgb(88.235295%,37.254903%,45.490196%);fill-opacity:1;" d="M 4.070312 7.332031 C 4.007812 7.164062 3.984375 7.003906 3.949219 6.789062 C 4.1875 6.738281 4.429688 6.683594 4.730469 6.621094 C 4.667969 6.410156 4.609375 6.226562 4.558594 5.96875 C 4.566406 5.878906 4.570312 5.859375 4.574219 5.839844 C 4.636719 5.8125 4.695312 5.789062 4.832031 5.734375 C 5.375 5.746094 5.847656 5.78125 6.320312 5.820312 C 6.597656 6.117188 6.875 6.414062 7.125 6.761719 C 6.25 7.296875 6.234375 7.445312 6.96875 8.113281 C 7.042969 8.183594 7.082031 8.285156 7.140625 8.375 C 6.550781 8.40625 5.960938 8.4375 5.328125 8.460938 C 4.890625 8.082031 4.5 7.714844 4.070312 7.332031 Z M 4.070312 7.332031 "/>
<path style=" stroke:none;fill-rule:nonzero;fill:rgb(83.137256%,30.980393%,41.960785%);fill-opacity:1;" d="M 15.011719 16.046875 C 15.175781 16.164062 15.285156 16.347656 15.445312 16.414062 C 16.296875 16.757812 17.175781 17.03125 18.011719 17.410156 C 18.496094 17.636719 18.90625 18.023438 19.363281 18.320312 C 19.550781 18.441406 19.765625 18.519531 20.011719 18.621094 C 20 18.75 19.945312 18.878906 19.867188 19.035156 C 19.128906 18.800781 18.414062 18.53125 17.695312 18.273438 C 17.160156 18.078125 16.613281 17.925781 16.089844 17.710938 C 15.433594 17.4375 14.984375 16.9375 14.71875 16.242188 C 14.800781 16.15625 14.886719 16.105469 15.011719 16.046875 Z M 15.011719 16.046875 "/>
<path style=" stroke:none;fill-rule:nonzero;fill:rgb(89.019608%,42.352942%,49.803922%);fill-opacity:1;" d="M 11.828125 10.257812 C 11.996094 10.347656 12.269531 10.40625 12.3125 10.535156 C 12.449219 10.957031 12.535156 11.398438 12.574219 11.839844 C 12.625 12.359375 12.210938 12.601562 11.859375 12.878906 C 11.773438 12.945312 11.753906 13.097656 11.699219 13.253906 C 11.292969 12.777344 10.890625 12.257812 10.464844 11.710938 C 10.378906 11.464844 10.320312 11.242188 10.308594 10.976562 C 10.785156 10.824219 11.207031 10.695312 11.636719 10.617188 C 11.890625 10.566406 11.941406 10.472656 11.828125 10.257812 Z M 11.828125 10.257812 "/>
<path style=" stroke:none;fill-rule:nonzero;fill:rgb(92.156863%,49.411765%,54.901963%);fill-opacity:1;" d="M 19.328125 12.375 C 19.609375 12.746094 19.847656 13.113281 20.121094 13.542969 C 19.5625 13.726562 19.078125 13.886719 18.550781 14.058594 C 18.488281 14.074219 18.46875 14.074219 18.394531 14.066406 C 18.339844 14.0625 18.292969 14.0625 18.292969 14.0625 C 18.261719 14.015625 18.242188 13.964844 18.207031 13.921875 C 17.570312 13.199219 17.699219 12.769531 18.644531 12.503906 C 18.851562 12.445312 19.070312 12.417969 19.328125 12.375 Z M 19.328125 12.375 "/>
<path style=" stroke:none;fill-rule:nonzero;fill:rgb(89.019608%,42.352942%,49.803922%);fill-opacity:1;" d="M 12.511719 13.96875 C 12.765625 13.417969 13.304688 13.3125 13.789062 13.296875 C 14.273438 13.273438 14.769531 13.460938 15.332031 13.570312 C 14.945312 13.984375 14.664062 14.289062 14.382812 14.628906 C 13.765625 14.445312 13.148438 14.222656 12.511719 13.96875 Z M 12.511719 13.96875 "/>
<path style=" stroke:none;fill-rule:nonzero;fill:rgb(92.54902%,92.156863%,92.156863%);fill-opacity:1;" d="M 18.289062 14.085938 C 18.292969 14.0625 18.339844 14.0625 18.367188 14.070312 C 18.371094 14.105469 18.347656 14.128906 18.296875 14.148438 C 18.273438 14.15625 18.28125 14.109375 18.289062 14.085938 Z M 18.289062 14.085938 "/>
<path style=" stroke:none;fill-rule:nonzero;fill:rgb(88.235295%,88.627452%,88.627452%);fill-opacity:1;" d="M 3.578125 25.09375 C 3.683594 24.789062 3.820312 24.523438 3.976562 24.222656 C 4.433594 24.394531 5.015625 24.378906 5.257812 24.960938 C 4.699219 25.277344 4.171875 25.382812 3.578125 25.09375 Z M 3.578125 25.09375 "/>
<path style=" stroke:none;fill-rule:nonzero;fill:rgb(92.54902%,92.156863%,92.156863%);fill-opacity:1;" d="M 23.902344 5.46875 C 24.589844 5.484375 25.1875 5.703125 25.734375 6.140625 C 26.070312 6.410156 26.503906 6.585938 26.917969 6.710938 C 27.746094 6.957031 27.917969 7.128906 27.941406 8.082031 C 27.550781 8.199219 27.203125 8.265625 26.820312 8.335938 C 26.625 8.394531 26.46875 8.445312 26.277344 8.503906 C 25.703125 8.867188 25.167969 9.226562 24.601562 9.601562 C 24.476562 9.679688 24.382812 9.746094 24.253906 9.804688 C 24.011719 9.679688 23.8125 9.554688 23.613281 9.394531 C 23.644531 9.210938 23.671875 9.074219 23.71875 8.902344 C 23.796875 8.664062 23.855469 8.464844 23.9375 8.230469 C 24.300781 7.269531 24.203125 6.359375 23.867188 5.464844 C 23.878906 5.46875 23.902344 5.46875 23.902344 5.46875 Z M 23.902344 5.46875 "/>
<path style=" stroke:none;fill-rule:nonzero;fill:rgb(94.901961%,59.215689%,63.137257%);fill-opacity:1;" d="M 18.035156 5.601562 C 18.050781 5.527344 18.066406 5.476562 18.140625 5.390625 C 18.792969 5.394531 19.410156 5.242188 19.53125 4.648438 C 19.660156 4.007812 20.066406 3.929688 20.519531 3.789062 C 20.652344 3.933594 20.785156 4.074219 20.972656 4.269531 C 21.136719 4.074219 21.289062 3.890625 21.515625 3.699219 C 21.984375 3.851562 22.320312 3.808594 22.550781 3.40625 C 23.242188 3.902344 23.53125 4.664062 23.886719 5.429688 C 23.902344 5.46875 23.878906 5.46875 23.820312 5.464844 C 23.273438 5.585938 22.570312 5.546875 22.339844 5.859375 C 21.789062 6.597656 21.144531 6.644531 20.414062 6.457031 C 19.609375 6.246094 18.828125 5.941406 18.039062 5.679688 C 18.039062 5.679688 18.039062 5.625 18.035156 5.601562 Z M 18.035156 5.601562 "/>
<path style=" stroke:none;fill-rule:nonzero;fill:rgb(85.882354%,37.64706%,45.882353%);fill-opacity:1;" d="M 29.992188 13.59375 C 29.273438 14.300781 28.363281 14.5625 27.355469 14.667969 C 26.917969 13.914062 27.070312 13.371094 27.765625 12.929688 C 27.917969 12.835938 28.132812 12.734375 28.175781 12.59375 C 28.332031 12.082031 28.722656 11.871094 29.167969 11.707031 C 29.5625 11.5625 29.824219 11.289062 29.757812 10.878906 C 29.628906 10.066406 29.640625 9.308594 30.210938 8.648438 C 30.230469 8.625 30.226562 8.578125 30.234375 8.542969 C 30.460938 8.683594 30.683594 8.824219 30.882812 9.019531 C 30.640625 9.5 30.433594 9.925781 30.222656 10.390625 C 30.273438 10.566406 30.339844 10.699219 30.375 10.835938 C 30.476562 11.222656 30.644531 11.617188 30.613281 11.996094 C 30.597656 12.183594 30.191406 12.335938 29.964844 12.503906 C 29.714844 12.691406 29.609375 12.914062 29.796875 13.210938 C 29.875 13.332031 29.925781 13.464844 29.992188 13.59375 Z M 29.992188 13.59375 "/>
<path style=" stroke:none;fill-rule:nonzero;fill:rgb(87.843138%,40.000001%,47.843137%);fill-opacity:1;" d="M 26.859375 8.332031 C 27.203125 8.265625 27.550781 8.199219 27.941406 8.125 C 28.285156 8.128906 28.585938 8.140625 28.953125 8.171875 C 29.046875 8.207031 29.074219 8.222656 29.105469 8.285156 C 29.144531 8.613281 29.3125 9.011719 29.183594 9.167969 C 28.882812 9.550781 28.925781 9.894531 29.007812 10.304688 C 29.042969 10.46875 29.007812 10.734375 28.894531 10.832031 C 28.261719 11.375 27.484375 11.761719 27.070312 12.542969 C 27.042969 12.59375 26.949219 12.628906 26.878906 12.644531 C 26.414062 12.761719 26.25 13.074219 26.175781 13.527344 C 26.144531 13.710938 25.886719 13.976562 25.710938 13.992188 C 25.246094 14.035156 24.773438 13.945312 24.300781 13.949219 C 24.15625 13.949219 24.007812 14.082031 23.859375 14.152344 C 23.628906 14.089844 23.394531 14.023438 23.121094 13.957031 C 22.820312 13.867188 22.550781 13.796875 22.300781 13.683594 C 22.175781 13.625 22.085938 13.488281 22.015625 13.324219 C 22.160156 13.097656 22.273438 12.9375 22.402344 12.816406 C 22.792969 13.398438 23.269531 13.757812 23.964844 13.691406 C 24.527344 13.636719 25.113281 13.648438 25.511719 13.125 C 25.945312 12.558594 26.398438 12.011719 26.851562 11.460938 C 26.945312 11.351562 27.058594 11.246094 27.179688 11.167969 C 28.355469 10.417969 28.347656 10.417969 28.09375 9.097656 C 28.007812 8.65625 27.820312 8.382812 27.316406 8.46875 C 27.171875 8.496094 27.019531 8.472656 26.867188 8.4375 C 26.863281 8.378906 26.863281 8.355469 26.859375 8.332031 Z M 26.859375 8.332031 "/>
<path style=" stroke:none;fill-rule:nonzero;fill:rgb(87.058824%,38.82353%,47.058824%);fill-opacity:1;" d="M 23.898438 14.171875 C 24.007812 14.082031 24.15625 13.949219 24.300781 13.949219 C 24.773438 13.945312 25.246094 14.035156 25.710938 13.992188 C 25.886719 13.976562 26.144531 13.710938 26.175781 13.527344 C 26.25 13.074219 26.414062 12.761719 26.878906 12.644531 C 26.949219 12.628906 27.042969 12.59375 27.070312 12.542969 C 27.484375 11.761719 28.261719 11.375 28.894531 10.832031 C 29.007812 10.734375 29.042969 10.46875 29.007812 10.304688 C 28.925781 9.894531 28.882812 9.550781 29.183594 9.167969 C 29.3125 9.011719 29.144531 8.613281 29.152344 8.28125 C 29.53125 8.316406 29.875 8.394531 30.21875 8.472656 C 30.21875 8.472656 30.226562 8.507812 30.230469 8.523438 C 30.226562 8.578125 30.230469 8.625 30.210938 8.648438 C 29.640625 9.308594 29.628906 10.066406 29.757812 10.878906 C 29.824219 11.289062 29.5625 11.5625 29.167969 11.707031 C 28.722656 11.871094 28.332031 12.082031 28.175781 12.59375 C 28.132812 12.734375 27.917969 12.835938 27.765625 12.929688 C 27.070312 13.371094 26.917969 13.914062 27.308594 14.664062 C 27.050781 14.710938 26.789062 14.714844 26.46875 14.675781 C 26.242188 14.269531 26.097656 14.386719 25.960938 14.65625 C 25.285156 14.503906 24.609375 14.347656 23.898438 14.171875 Z M 23.898438 14.171875 "/>
<path style=" stroke:none;fill-rule:nonzero;fill:rgb(85.882354%,39.215687%,45.882353%);fill-opacity:1;" d="M 28.453125 5.46875 C 28.578125 5.078125 28.707031 4.683594 28.90625 4.265625 C 29.25 4.347656 29.523438 4.445312 29.789062 4.5625 C 30.222656 4.761719 30.5625 4.710938 30.769531 4.242188 C 30.992188 4.242188 31.210938 4.242188 31.429688 4.242188 C 31.6875 5.40625 30.894531 6.246094 29.367188 6.347656 C 29.371094 5.667969 28.824219 5.660156 28.453125 5.46875 Z M 28.453125 5.46875 "/>
<path style=" stroke:none;fill-rule:nonzero;fill:rgb(94.901961%,62.7451%,66.274512%);fill-opacity:1;" d="M 20.515625 3.75 C 20.066406 3.929688 19.660156 4.007812 19.53125 4.648438 C 19.410156 5.242188 18.792969 5.394531 18.152344 5.355469 C 18.417969 4.546875 18.675781 3.699219 19.496094 3.167969 C 19.632812 3.054688 19.753906 2.972656 19.9375 2.847656 C 20.136719 3.148438 20.324219 3.429688 20.515625 3.75 Z M 20.515625 3.75 "/>
<path style=" stroke:none;fill-rule:nonzero;fill:rgb(85.09804%,34.509805%,44.705883%);fill-opacity:1;" d="M 30.027344 13.582031 C 29.925781 13.464844 29.875 13.332031 29.796875 13.210938 C 29.609375 12.914062 29.714844 12.691406 29.964844 12.503906 C 30.191406 12.335938 30.597656 12.183594 30.613281 11.996094 C 30.644531 11.617188 30.476562 11.222656 30.375 10.835938 C 30.339844 10.699219 30.273438 10.566406 30.25 10.394531 C 30.296875 10.355469 30.316406 10.355469 30.335938 10.351562 C 30.421875 10.460938 30.511719 10.566406 30.640625 10.714844 C 30.730469 10.746094 30.777344 10.734375 30.824219 10.722656 C 30.859375 10.730469 30.894531 10.738281 30.992188 10.765625 C 31.289062 10.839844 31.527344 10.890625 31.765625 10.945312 C 31.765625 10.945312 31.761719 10.941406 31.761719 10.945312 C 31.445312 11.984375 30.890625 12.867188 30.027344 13.582031 Z M 30.027344 13.582031 "/>
<path style=" stroke:none;fill-rule:nonzero;fill:rgb(87.843138%,40.000001%,47.843137%);fill-opacity:1;" d="M 30.765625 4.195312 C 30.5625 4.710938 30.222656 4.761719 29.789062 4.5625 C 29.523438 4.445312 29.25 4.347656 28.9375 4.242188 C 29.351562 3.503906 30.058594 3.394531 30.878906 3.402344 C 30.835938 3.691406 30.796875 3.921875 30.765625 4.195312 Z M 30.765625 4.195312 "/>
<path style=" stroke:none;fill-rule:nonzero;fill:rgb(91.37255%,90.980393%,90.980393%);fill-opacity:1;" d="M 30.363281 10.324219 C 30.316406 10.355469 30.296875 10.355469 30.25 10.351562 C 30.433594 9.925781 30.640625 9.5 30.886719 9.0625 C 31.140625 9.324219 31.359375 9.601562 31.621094 9.933594 C 31.148438 10.074219 30.773438 10.1875 30.363281 10.324219 Z M 30.363281 10.324219 "/>
<path style=" stroke:none;fill-rule:nonzero;fill:rgb(89.019608%,42.352942%,49.803922%);fill-opacity:1;" d="M 28.425781 5.503906 C 28.824219 5.660156 29.371094 5.667969 29.320312 6.347656 C 28.996094 6.425781 28.671875 6.457031 28.269531 6.496094 C 28.316406 6.128906 28.359375 5.832031 28.425781 5.503906 Z M 28.425781 5.503906 "/>
<path style=" stroke:none;fill-rule:nonzero;fill:rgb(92.54902%,92.156863%,92.156863%);fill-opacity:1;" d="M 30.222656 8.433594 C 29.875 8.394531 29.53125 8.316406 29.144531 8.242188 C 29.074219 8.222656 29.046875 8.207031 29.003906 8.167969 C 29.207031 7.730469 29.882812 7.535156 30.238281 7.78125 C 30.558594 8 30.289062 8.191406 30.222656 8.433594 Z M 30.222656 8.433594 "/>
<path style=" stroke:none;fill-rule:nonzero;fill:rgb(94.901961%,62.7451%,66.274512%);fill-opacity:1;" d="M 22.539062 3.375 C 22.320312 3.808594 21.984375 3.851562 21.546875 3.679688 C 21.667969 3.414062 21.835938 3.160156 22.121094 2.71875 C 22.292969 2.980469 22.410156 3.160156 22.539062 3.375 Z M 22.539062 3.375 "/>
<path style=" stroke:none;fill-rule:nonzero;fill:rgb(91.37255%,90.980393%,90.980393%);fill-opacity:1;" d="M 31.769531 10.898438 C 31.527344 10.890625 31.289062 10.839844 31.019531 10.765625 C 31.15625 10.65625 31.320312 10.519531 31.492188 10.503906 C 31.578125 10.5 31.679688 10.726562 31.769531 10.898438 Z M 31.769531 10.898438 "/>
<path style=" stroke:none;fill-rule:nonzero;fill:rgb(91.37255%,90.980393%,90.980393%);fill-opacity:1;" d="M 30.785156 10.71875 C 30.777344 10.734375 30.730469 10.746094 30.671875 10.730469 C 30.691406 10.707031 30.714844 10.707031 30.785156 10.71875 Z M 30.785156 10.71875 "/>
<path style=" stroke:none;fill-rule:nonzero;fill:rgb(80.392158%,26.274511%,38.82353%);fill-opacity:1;" d="M 27.320312 16.375 C 28.039062 16.703125 28.398438 17.351562 28.746094 18 C 28.890625 18.277344 28.980469 18.582031 29.058594 18.917969 C 28.636719 19.148438 28.214844 19.277344 27.878906 19.523438 C 26.652344 20.417969 25.34375 21.160156 23.949219 21.753906 C 23.105469 21.195312 22.527344 20.429688 22.214844 19.445312 C 23.074219 19.464844 23.832031 19.378906 24.5 18.820312 C 24.757812 18.601562 25.128906 18.507812 25.453125 18.375 C 26.378906 17.992188 27.132812 17.449219 27.320312 16.375 Z M 27.320312 16.375 "/>
<path style=" stroke:none;fill-rule:nonzero;fill:rgb(77.64706%,23.921569%,36.078432%);fill-opacity:1;" d="M 23.96875 21.785156 C 25.34375 21.160156 26.652344 20.417969 27.878906 19.523438 C 28.214844 19.277344 28.636719 19.148438 29.058594 18.960938 C 29.152344 19.121094 29.210938 19.285156 29.289062 19.480469 C 29.34375 20.082031 29.378906 20.648438 29.421875 21.3125 C 28.730469 21.199219 28.121094 21.097656 27.425781 20.984375 C 27.503906 21.597656 27.578125 22.1875 27.660156 22.84375 C 26.296875 22.890625 25.070312 22.640625 23.96875 21.785156 Z M 23.96875 21.785156 "/>
<path style=" stroke:none;fill-rule:nonzero;fill:rgb(84.313726%,33.333334%,43.921569%);fill-opacity:1;" d="M 21.601562 15.878906 C 21.597656 15.746094 21.609375 15.664062 21.671875 15.539062 C 22.242188 15.503906 22.453125 15.140625 22.636719 14.738281 C 22.683594 14.734375 22.734375 14.734375 22.820312 14.726562 C 23.917969 14.996094 24.984375 15.269531 26.042969 15.597656 C 25.953125 15.738281 25.878906 15.875 25.769531 15.914062 C 24.46875 16.371094 23.390625 17.191406 22.285156 17.980469 C 22.179688 18.058594 22.003906 18.039062 21.863281 18.0625 C 21.78125 17.351562 21.699219 16.640625 21.601562 15.878906 Z M 21.601562 15.878906 "/>
<path style=" stroke:none;fill-rule:nonzero;fill:rgb(83.137256%,30.980393%,41.960785%);fill-opacity:1;" d="M 21.859375 18.105469 C 22.003906 18.039062 22.179688 18.058594 22.285156 17.980469 C 23.390625 17.191406 24.46875 16.371094 25.769531 15.914062 C 25.878906 15.875 25.953125 15.738281 26.070312 15.625 C 26.472656 15.796875 26.839844 15.992188 27.191406 16.242188 C 26.804688 16.496094 26.433594 16.703125 26.058594 16.90625 C 25.015625 17.488281 23.972656 18.070312 22.921875 18.644531 C 22.644531 18.796875 22.351562 18.925781 22.066406 19.066406 C 21.996094 18.761719 21.925781 18.457031 21.859375 18.105469 Z M 21.859375 18.105469 "/>
<path style=" stroke:none;fill-rule:nonzero;fill:rgb(81.960785%,27.843139%,40.000001%);fill-opacity:1;" d="M 22.066406 19.101562 C 22.351562 18.925781 22.644531 18.796875 22.921875 18.644531 C 23.972656 18.070312 25.015625 17.488281 26.058594 16.90625 C 26.433594 16.703125 26.804688 16.496094 27.214844 16.273438 C 27.285156 16.269531 27.304688 16.292969 27.316406 16.351562 C 27.132812 17.449219 26.378906 17.992188 25.453125 18.375 C 25.128906 18.507812 24.757812 18.601562 24.5 18.820312 C 23.832031 19.378906 23.074219 19.464844 22.203125 19.40625 C 22.121094 19.320312 22.089844 19.230469 22.066406 19.101562 Z M 22.066406 19.101562 "/>
<path style=" stroke:none;fill-rule:nonzero;fill:rgb(77.64706%,23.921569%,36.078432%);fill-opacity:1;" d="M 21.324219 23.703125 C 21.246094 23.667969 21.160156 23.597656 21.109375 23.511719 C 21.203125 23.550781 21.257812 23.613281 21.324219 23.703125 Z M 21.324219 23.703125 "/>
<path style=" stroke:none;fill-rule:nonzero;fill:rgb(93.725491%,54.901963%,60.392159%);fill-opacity:1;" d="M 23.914062 8.261719 C 23.855469 8.464844 23.796875 8.664062 23.671875 8.894531 C 23.355469 8.847656 23.105469 8.773438 22.847656 8.65625 C 22.578125 8.5 22.328125 8.335938 22.054688 8.273438 C 21.171875 8.082031 20.480469 8.300781 20.214844 8.867188 C 19.910156 9.515625 19.378906 9.753906 18.691406 9.792969 C 18.429688 9.296875 18.199219 8.828125 17.96875 8.359375 C 17.949219 7.605469 17.933594 6.855469 17.972656 6.0625 C 18.226562 6.148438 18.441406 6.253906 18.613281 6.410156 C 19.125 6.878906 19.683594 7.265625 20.386719 7.351562 C 21.183594 7.449219 21.988281 7.496094 22.785156 7.589844 C 22.9375 7.609375 23.074219 7.746094 23.214844 7.832031 C 23.445312 7.972656 23.679688 8.117188 23.914062 8.261719 Z M 23.914062 8.261719 "/>
<path style=" stroke:none;fill-rule:nonzero;fill:rgb(92.156863%,48.235294%,54.11765%);fill-opacity:1;" d="M 18.316406 10.753906 C 17.785156 11.511719 16.871094 11.941406 16.144531 11.691406 C 15.511719 11.476562 15.097656 10.933594 14.863281 10.347656 C 14.5 9.460938 14.113281 9.222656 13.21875 9.464844 C 12.707031 9.605469 12.175781 9.664062 11.621094 9.789062 C 11.394531 9.523438 11.203125 9.226562 10.96875 8.863281 C 11.359375 8.707031 11.65625 8.589844 12 8.507812 C 12.160156 8.671875 12.257812 8.839844 12.402344 8.902344 C 13 9.160156 14.058594 8.800781 14.507812 8.21875 C 15.15625 8.433594 15.804688 8.644531 16.472656 8.925781 C 16.261719 9.375 15.84375 9.679688 16.28125 10.234375 C 16.808594 10.898438 17.058594 11.039062 17.871094 10.792969 C 18.007812 10.75 18.15625 10.730469 18.304688 10.714844 C 18.3125 10.726562 18.316406 10.753906 18.316406 10.753906 Z M 18.316406 10.753906 "/>
<path style=" stroke:none;fill-rule:nonzero;fill:rgb(94.509804%,56.862748%,61.56863%);fill-opacity:1;" d="M 23.9375 8.230469 C 23.679688 8.117188 23.445312 7.972656 23.214844 7.832031 C 23.074219 7.746094 22.9375 7.609375 22.785156 7.589844 C 21.988281 7.496094 21.183594 7.449219 20.386719 7.351562 C 19.683594 7.265625 19.125 6.878906 18.613281 6.410156 C 18.441406 6.253906 18.226562 6.148438 17.992188 6.023438 C 17.964844 5.925781 17.976562 5.828125 18.015625 5.703125 C 18.828125 5.941406 19.609375 6.246094 20.414062 6.457031 C 21.144531 6.644531 21.789062 6.597656 22.339844 5.859375 C 22.570312 5.546875 23.273438 5.585938 23.808594 5.460938 C 24.203125 6.359375 24.300781 7.269531 23.9375 8.230469 Z M 23.9375 8.230469 "/>
<path style=" stroke:none;fill-rule:nonzero;fill:rgb(90.196079%,44.705883%,51.372552%);fill-opacity:1;" d="M 12.84375 2.179688 C 13.085938 2.195312 13.3125 2.253906 13.566406 2.316406 C 13.601562 2.070312 13.628906 1.855469 13.679688 1.46875 C 14.128906 1.679688 14.515625 1.867188 14.914062 2.121094 C 14.417969 2.71875 13.90625 3.242188 13.394531 3.769531 C 13.414062 3.816406 13.433594 3.863281 13.457031 3.910156 C 13.710938 3.878906 13.972656 3.851562 14.226562 3.808594 C 14.65625 3.734375 15.082031 3.652344 15.515625 3.621094 C 15.519531 4.007812 15.523438 4.347656 15.523438 4.683594 C 15.511719 4.765625 15.496094 4.847656 15.484375 4.96875 C 15.484375 5.011719 15.441406 5.015625 15.394531 5.027344 C 15.320312 5.054688 15.296875 5.078125 15.277344 5.109375 C 14.765625 4.917969 14.214844 4.789062 13.742188 4.523438 C 12.824219 4.011719 12.558594 3.253906 12.84375 2.179688 Z M 12.84375 2.179688 "/>
<path style=" stroke:none;fill-rule:nonzero;fill:rgb(93.333334%,51.764709%,56.470591%);fill-opacity:1;" d="M 18.296875 10.703125 C 18.15625 10.730469 18.007812 10.75 17.871094 10.792969 C 17.058594 11.039062 16.808594 10.898438 16.28125 10.234375 C 15.84375 9.679688 16.261719 9.375 16.5 8.953125 C 16.585938 8.953125 16.667969 8.988281 16.804688 9.066406 C 17.339844 9.636719 17.816406 10.167969 18.296875 10.703125 Z M 18.296875 10.703125 "/>
<path style=" stroke:none;fill-rule:nonzero;fill:rgb(92.54902%,92.156863%,92.156863%);fill-opacity:1;" d="M 18.304688 10.714844 C 17.816406 10.167969 17.339844 9.636719 16.835938 9.070312 C 17.171875 8.816406 17.53125 8.59375 17.925781 8.363281 C 18.199219 8.828125 18.429688 9.296875 18.699219 9.828125 C 18.847656 10.046875 18.957031 10.207031 19.070312 10.398438 C 19.078125 10.46875 19.085938 10.511719 19.070312 10.582031 C 18.871094 10.714844 18.695312 10.808594 18.519531 10.90625 C 18.46875 10.871094 18.414062 10.832031 18.339844 10.777344 C 18.316406 10.753906 18.3125 10.726562 18.304688 10.714844 Z M 18.304688 10.714844 "/>
<path style=" stroke:none;fill-rule:nonzero;fill:rgb(92.156863%,49.411765%,54.901963%);fill-opacity:1;" d="M 14.464844 8.199219 C 14.058594 8.800781 13 9.160156 12.402344 8.902344 C 12.257812 8.839844 12.160156 8.671875 12.042969 8.507812 C 12.804688 8.105469 13.609375 8.105469 14.464844 8.199219 Z M 14.464844 8.199219 "/>
<path style=" stroke:none;fill-rule:nonzero;fill:rgb(87.843138%,40.000001%,47.843137%);fill-opacity:1;" d="M 7.183594 8.367188 C 7.082031 8.285156 7.042969 8.183594 6.96875 8.113281 C 6.234375 7.445312 6.25 7.296875 7.136719 6.800781 C 7.21875 6.824219 7.261719 6.863281 7.328125 6.917969 C 7.511719 7.320312 7.671875 7.707031 7.863281 8.167969 C 7.625 8.242188 7.425781 8.300781 7.183594 8.367188 Z M 7.183594 8.367188 "/>
<path style=" stroke:none;fill-rule:nonzero;fill:rgb(89.803922%,89.803922%,89.803922%);fill-opacity:1;" d="M 11.816406 10.238281 C 11.941406 10.472656 11.890625 10.566406 11.636719 10.617188 C 11.207031 10.695312 10.785156 10.824219 10.316406 10.933594 C 10.160156 10.792969 10.046875 10.652344 9.921875 10.496094 C 10.371094 9.894531 11.023438 10.289062 11.566406 10.0625 C 11.652344 10.066406 11.703125 10.101562 11.78125 10.152344 C 11.804688 10.171875 11.808594 10.21875 11.816406 10.238281 Z M 11.816406 10.238281 "/>
<path style=" stroke:none;fill-rule:nonzero;fill:rgb(92.156863%,48.235294%,54.11765%);fill-opacity:1;" d="M 15.304688 5.109375 C 15.296875 5.078125 15.320312 5.054688 15.375 5.03125 C 15.378906 5.050781 15.355469 5.078125 15.304688 5.109375 Z M 15.304688 5.109375 "/>
<path style=" stroke:none;fill-rule:nonzero;fill:rgb(87.843138%,40.000001%,47.843137%);fill-opacity:1;" d="M 25.996094 14.675781 C 26.097656 14.386719 26.242188 14.269531 26.421875 14.667969 C 26.292969 14.699219 26.164062 14.695312 25.996094 14.675781 Z M 25.996094 14.675781 "/>
<path style=" stroke:none;fill-rule:nonzero;fill:rgb(89.803922%,89.411765%,89.411765%);fill-opacity:1;" d="M 30.585938 22.515625 C 30.574219 22.429688 30.59375 22.332031 30.617188 22.238281 C 30.660156 22.253906 30.703125 22.269531 30.746094 22.28125 C 30.703125 22.359375 30.664062 22.433594 30.585938 22.515625 Z M 30.585938 22.515625 "/>
<path style=" stroke:none;fill-rule:nonzero;fill:rgb(90.980393%,91.37255%,91.37255%);fill-opacity:1;" d="M 6.351562 5.796875 C 5.847656 5.78125 5.375 5.746094 4.855469 5.710938 C 4.933594 5.34375 5.59375 4.824219 5.839844 4.96875 C 6.113281 5.132812 6.519531 5.296875 6.351562 5.796875 Z M 6.351562 5.796875 "/>
<path style=" stroke:none;fill-rule:nonzero;fill:rgb(88.235295%,40.784314%,48.627451%);fill-opacity:1;" d="M 4.554688 5.84375 C 4.570312 5.859375 4.566406 5.878906 4.558594 5.925781 C 4.539062 5.929688 4.519531 5.90625 4.511719 5.882812 C 4.507812 5.871094 4.523438 5.855469 4.554688 5.84375 Z M 4.554688 5.84375 "/>
<path style=" stroke:none;fill-rule:nonzero;fill:rgb(92.156863%,48.235294%,54.11765%);fill-opacity:1;" d="M 15.507812 3.570312 C 15.082031 3.652344 14.65625 3.734375 14.226562 3.808594 C 13.972656 3.851562 13.710938 3.878906 13.457031 3.910156 C 13.433594 3.863281 13.414062 3.816406 13.394531 3.769531 C 13.90625 3.242188 14.417969 2.71875 14.933594 2.15625 C 15.15625 2.570312 15.367188 3.023438 15.566406 3.519531 C 15.550781 3.566406 15.507812 3.570312 15.507812 3.570312 Z M 15.507812 3.570312 "/>
<path style=" stroke:none;fill-rule:nonzero;fill:rgb(90.980393%,91.37255%,91.37255%);fill-opacity:1;" d="M 15.515625 3.621094 C 15.507812 3.570312 15.550781 3.566406 15.570312 3.5625 C 15.808594 3.640625 16.210938 3.734375 16.207031 3.800781 C 16.1875 4.1875 16.054688 4.5625 15.5625 4.675781 C 15.523438 4.347656 15.519531 4.007812 15.515625 3.621094 Z M 15.515625 3.621094 "/>
<path style=" stroke:none;fill-rule:nonzero;fill:rgb(89.019608%,42.352942%,49.803922%);fill-opacity:1;" d="M 19.289062 14.804688 C 19.625 14.691406 19.960938 14.625 20.375 14.542969 C 20.375 14.875 20.375 15.140625 20.363281 15.441406 C 19.890625 15.445312 19.421875 15.433594 19.289062 14.804688 Z M 19.289062 14.804688 "/>
<path style=" stroke:none;fill-rule:nonzero;fill:rgb(89.803922%,89.411765%,89.411765%);fill-opacity:1;" d="M 18.527344 10.945312 C 18.695312 10.808594 18.871094 10.714844 19.097656 10.609375 C 19.449219 11.007812 19.75 11.414062 20.050781 11.820312 C 19.835938 11.921875 19.625 12.023438 19.390625 12.164062 C 19.09375 11.792969 18.816406 11.386719 18.527344 10.945312 Z M 18.527344 10.945312 "/>
<path style=" stroke:none;fill-rule:nonzero;fill:rgb(92.156863%,49.411765%,54.901963%);fill-opacity:1;" d="M 20.074219 11.851562 C 19.75 11.414062 19.449219 11.007812 19.121094 10.574219 C 19.085938 10.511719 19.078125 10.46875 19.113281 10.398438 C 19.507812 10.402344 19.953125 10.3125 20.195312 10.492188 C 20.769531 10.914062 21.246094 11.464844 21.757812 11.992188 C 21.742188 12.0625 21.734375 12.105469 21.691406 12.164062 C 21.464844 12.433594 21.265625 12.683594 21.066406 12.929688 C 20.746094 12.582031 20.421875 12.230469 20.074219 11.851562 Z M 20.074219 11.851562 "/>
<path style=" stroke:none;fill-rule:nonzero;fill:rgb(89.803922%,89.411765%,89.411765%);fill-opacity:1;" d="M 21.109375 12.9375 C 21.265625 12.683594 21.464844 12.433594 21.726562 12.179688 C 22.03125 12.285156 22.269531 12.386719 22.515625 12.492188 C 22.523438 12.488281 22.542969 12.480469 22.527344 12.511719 C 22.46875 12.621094 22.425781 12.699219 22.386719 12.777344 C 22.273438 12.9375 22.160156 13.097656 22.019531 13.28125 C 21.710938 13.183594 21.429688 13.0625 21.109375 12.9375 Z M 21.109375 12.9375 "/>
<path style=" stroke:none;fill-rule:nonzero;fill:rgb(87.843138%,40.000001%,47.843137%);fill-opacity:1;" d="M 22.59375 14.71875 C 22.453125 15.140625 22.242188 15.503906 21.679688 15.496094 C 21.597656 15.199219 21.5625 14.902344 21.515625 14.523438 C 21.921875 14.59375 22.238281 14.648438 22.59375 14.71875 Z M 22.59375 14.71875 "/>
<path style=" stroke:none;fill-rule:nonzero;fill:rgb(89.019608%,42.352942%,49.803922%);fill-opacity:1;" d="M 26.820312 8.335938 C 26.863281 8.355469 26.863281 8.378906 26.875 8.476562 C 26.9375 8.644531 26.988281 8.746094 27.058594 8.824219 C 27.648438 9.472656 27.5625 10.152344 26.765625 10.519531 C 25.890625 10.921875 25.433594 11.695312 24.96875 12.4375 C 24.457031 13.257812 23.800781 13.441406 23.03125 12.828125 C 22.875 12.703125 22.707031 12.597656 22.542969 12.480469 C 22.542969 12.480469 22.523438 12.488281 22.527344 12.464844 C 22.554688 12.414062 22.578125 12.390625 22.652344 12.367188 C 23.578125 12.484375 23.960938 12.242188 23.84375 11.609375 C 23.804688 11.390625 23.621094 11.199219 23.503906 10.964844 C 23.511719 10.894531 23.519531 10.855469 23.558594 10.796875 C 23.824219 10.457031 24.058594 10.132812 24.292969 9.808594 C 24.382812 9.746094 24.476562 9.679688 24.644531 9.601562 C 24.90625 9.660156 25.109375 9.699219 25.277344 9.804688 C 25.714844 10.074219 26.097656 9.816406 26.386719 9.597656 C 26.523438 9.492188 26.410156 9.046875 26.394531 8.757812 C 26.390625 8.667969 26.34375 8.582031 26.316406 8.496094 C 26.46875 8.445312 26.625 8.394531 26.820312 8.335938 Z M 26.820312 8.335938 "/>
<path style=" stroke:none;fill-rule:nonzero;fill:rgb(93.333334%,51.764709%,56.470591%);fill-opacity:1;" d="M 22.855469 8.695312 C 23.105469 8.773438 23.355469 8.847656 23.652344 8.925781 C 23.671875 9.074219 23.644531 9.210938 23.582031 9.414062 C 23.320312 9.847656 23.09375 10.222656 22.839844 10.613281 C 22.753906 10.691406 22.691406 10.75 22.617188 10.777344 C 22.046875 10.296875 21.464844 9.886719 20.960938 9.394531 C 20.578125 9.015625 20.714844 8.632812 21.242188 8.601562 C 21.777344 8.566406 22.316406 8.660156 22.855469 8.695312 Z M 22.855469 8.695312 "/>
<path style=" stroke:none;fill-rule:nonzero;fill:rgb(90.196079%,44.705883%,51.372552%);fill-opacity:1;" d="M 26.277344 8.503906 C 26.34375 8.582031 26.390625 8.667969 26.394531 8.757812 C 26.410156 9.046875 26.523438 9.492188 26.386719 9.597656 C 26.097656 9.816406 25.714844 10.074219 25.277344 9.804688 C 25.109375 9.699219 24.90625 9.660156 24.675781 9.585938 C 25.167969 9.226562 25.703125 8.867188 26.277344 8.503906 Z M 26.277344 8.503906 "/>
<path style=" stroke:none;fill-rule:nonzero;fill:rgb(89.803922%,89.411765%,89.411765%);fill-opacity:1;" d="M 22.867188 10.59375 C 23.09375 10.222656 23.320312 9.847656 23.578125 9.457031 C 23.8125 9.554688 24.011719 9.679688 24.253906 9.804688 C 24.058594 10.132812 23.824219 10.457031 23.519531 10.78125 C 23.257812 10.71875 23.0625 10.65625 22.867188 10.59375 Z M 22.867188 10.59375 "/>
<path style=" stroke:none;fill-rule:nonzero;fill:rgb(88.235295%,40.784314%,48.627451%);fill-opacity:1;" d="M 22.527344 12.511719 C 22.707031 12.597656 22.875 12.703125 23.03125 12.828125 C 23.800781 13.441406 24.457031 13.257812 24.96875 12.4375 C 25.433594 11.695312 25.890625 10.921875 26.765625 10.519531 C 27.5625 10.152344 27.648438 9.472656 27.058594 8.824219 C 26.988281 8.746094 26.9375 8.644531 26.875 8.511719 C 27.019531 8.472656 27.171875 8.496094 27.316406 8.46875 C 27.820312 8.382812 28.007812 8.65625 28.09375 9.097656 C 28.347656 10.417969 28.355469 10.417969 27.179688 11.167969 C 27.058594 11.246094 26.945312 11.351562 26.851562 11.460938 C 26.398438 12.011719 25.945312 12.558594 25.511719 13.125 C 25.113281 13.648438 24.527344 13.636719 23.964844 13.691406 C 23.269531 13.757812 22.792969 13.398438 22.402344 12.816406 C 22.425781 12.699219 22.46875 12.621094 22.527344 12.511719 Z M 22.527344 12.511719 "/>
<path style=" stroke:none;fill-rule:nonzero;fill:rgb(92.941177%,52.549022%,58.039218%);fill-opacity:1;" d="M 22.847656 8.65625 C 22.316406 8.660156 21.777344 8.566406 21.242188 8.601562 C 20.714844 8.632812 20.578125 9.015625 20.960938 9.394531 C 21.464844 9.886719 22.046875 10.296875 22.601562 10.816406 C 22.324219 11.242188 22.042969 11.601562 21.761719 11.964844 C 21.246094 11.464844 20.769531 10.914062 20.195312 10.492188 C 19.953125 10.3125 19.507812 10.402344 19.113281 10.367188 C 18.957031 10.207031 18.847656 10.046875 18.730469 9.851562 C 19.378906 9.753906 19.910156 9.515625 20.214844 8.867188 C 20.480469 8.300781 21.171875 8.082031 22.054688 8.273438 C 22.328125 8.335938 22.578125 8.5 22.847656 8.65625 Z M 22.847656 8.65625 "/>
<path style=" stroke:none;fill-rule:nonzero;fill:rgb(92.54902%,92.156863%,92.156863%);fill-opacity:1;" d="M 21.757812 11.992188 C 22.042969 11.601562 22.324219 11.242188 22.621094 10.847656 C 22.691406 10.75 22.753906 10.691406 22.839844 10.613281 C 23.0625 10.65625 23.257812 10.71875 23.488281 10.796875 C 23.519531 10.855469 23.511719 10.894531 23.46875 10.984375 C 23.15625 11.476562 22.882812 11.917969 22.605469 12.363281 C 22.578125 12.390625 22.554688 12.414062 22.515625 12.46875 C 22.269531 12.386719 22.03125 12.285156 21.757812 12.160156 C 21.734375 12.105469 21.742188 12.0625 21.757812 11.992188 Z M 21.757812 11.992188 "/>
<path style=" stroke:none;fill-rule:nonzero;fill:rgb(91.37255%,46.666667%,53.333336%);fill-opacity:1;" d="M 22.652344 12.367188 C 22.882812 11.917969 23.15625 11.476562 23.464844 11.015625 C 23.621094 11.199219 23.804688 11.390625 23.84375 11.609375 C 23.960938 12.242188 23.578125 12.484375 22.652344 12.367188 Z M 22.652344 12.367188 "/>
</g>
</svg>
